<?xml version="1.0" standalone="no"?>
<!DOCTYPE svg PUBLIC "-//W3C//DTD SVG 20010904//EN"
 "http://www.w3.org/TR/2001/REC-SVG-20010904/DTD/svg10.dtd">
<svg version="1.0" xmlns="http://www.w3.org/2000/svg"
 width="1024.000000pt" height="1024.000000pt" viewBox="0 0 1024.000000 1024.000000"
 preserveAspectRatio="xMidYMid meet">
<metadata>
Created by potrace 1.16, written by Peter Selinger 2001-2019
</metadata>
<g transform="translate(0.000000,1024.000000) scale(0.100000,-0.100000)"
fill="#c2c3c3" stroke="none">
<path fill="#c2c3c3" stroke="none" d="M5025 9091 l-30 -18 -220 -130 -220
-130 -235 -138 -235 -138 -57 -35 -58 -35 0 -613 0 -614 4 0 4 0 258 152 259
151 245 145 245 144 38 24 37 24 0 615 0 615 -2 0 -3 0 -30 -19z"/>
<path fill="#c2c3c3" stroke="none" d="M5180 8493 l0 -618 113 -67 113 -67
110 -64 109 -63 150 -88 150 -88 120 -70 120 -71 48 -28 47 -29 5 0 5 0 0 614
0 615 -192 114 -193 114 -235 138 -235 138 -95 57 -95 57 -22 12 -23 12 0
-618z"/>
<path fill="#c2c3c3" stroke="none" d="M7270 7792 l-75 -45 -155 -92 -155 -92
-275 -162 -275 -163 -13 -13 -13 -12 248 -148 248 -148 85 -50 85 -50 135 -80
135 -80 100 -60 100 -59 31 18 30 19 245 146 244 146 249 148 249 147 -14 9
-14 9 -90 54 -90 54 -255 149 -255 150 -210 123 -210 123 -5 2 -5 2 -75 -45z"/>
<path fill="#c2c3c3" stroke="none" d="M2700 7725 l-175 -104 -85 -50 -85 -49
-300 -177 -300 -177 -3 -3 -3 -3 223 -132 223 -133 285 -170 285 -170 15 -9
15 -10 265 158 265 157 20 11 20 11 283 169 282 168 0 7 0 6 -63 36 -62 36
-300 178 -300 177 -149 89 -149 89 -16 -1 -16 0 -175 -104z"/>
<path fill="#c2c3c3" stroke="none" d="M4725 7329 l-390 -231 -205 -120 -205
-121 -220 -131 -220 -132 -227 -134 -227 -135 -1 -595 0 -595 218 -129 217
-129 205 -122 205 -121 48 -28 47 -27 0 603 0 603 23 14 22 14 295 175 295
175 35 20 35 19 170 101 170 100 325 190 325 189 105 63 105 63 55 31 55 32
33 16 32 17 0 5 0 6 -38 21 -37 21 -250 148 -250 147 -167 99 -166 99 -14 5
-14 5 -389 -231z"/>
<path fill="#c2c3c3" stroke="none" d="M1692 6398 l3 -652 45 -26 45 -27 190
-113 190 -114 130 -76 130 -77 140 -83 140 -82 13 -5 12 -5 0 648 -1 649 -227
134 -227 134 -235 140 -235 140 -58 33 -57 33 2 -651z"/>
<path fill="#c2c3c3" stroke="none" d="M8215 6852 l-330 -198 -187 -109 -188
-110 0 -649 0 -648 15 6 16 6 132 79 132 78 200 118 200 118 168 100 169 100
4 11 4 11 -2 642 -3 642 -330 -197z"/>
<path fill="#c2c3c3" stroke="none" d="M5835 6744 l-330 -197 -128 -75 -129
-74 9 -9 8 -8 500 -294 500 -295 5 -1216 5 -1216 467 278 468 277 0 1205 0
1205 -193 115 -192 114 -318 189 -318 188 -12 4 -12 5 -330 -196z"/>
<path fill="#c2c3c3" stroke="none" d="M4960 6231 l-145 -88 -150 -88 -150
-88 -177 -105 -178 -104 0 -8 0 -8 173 -103 172 -102 55 -33 55 -32 249 -146
248 -146 8 0 7 0 89 53 89 53 371 219 372 219 18 13 19 14 -25 19 -25 19 -160
92 -160 93 -145 86 -145 87 -147 86 -147 87 -13 -1 -13 -1 -145 -87z"/>
<path fill="#c2c3c3" stroke="none" d="M4097 5591 l-4 -36 2 -524 2 -524 24
-17 24 -17 310 -183 310 -183 35 -19 35 -20 10 -8 10 -8 97 -56 98 -56 4 0 4
0 0 518 -1 517 -6 48 -6 48 -280 166 -280 165 -192 113 -191 113 -5 -37z"/>
<path fill="#c2c3c3" stroke="none" d="M6005 5556 l-120 -72 -346 -207 -347
-206 -5 -28 -6 -28 0 -537 0 -538 7 0 8 0 19 14 20 14 35 20 35 20 335 197
335 198 70 40 70 40 18 15 17 15 0 559 -1 558 -12 -1 -12 0 -120 -73z"/>
<path fill="#c2c3c3" stroke="none" d="M2638 5052 l-77 -47 -86 -50 -87 -50
-346 -205 -347 -206 -3 -686 -2 -686 192 -114 193 -114 225 -134 225 -133 184
-109 183 -109 15 5 15 6 472 281 471 282 34 20 33 20 -21 16 -21 16 -187 109
-188 110 -230 137 -230 136 -160 95 -160 94 -3 682 -2 682 -8 -1 -7 -1 -77
-46z"/>
<path fill="#c2c3c3" stroke="none" d="M7510 4417 l0 -684 -23 -10 -24 -11
-349 -207 -349 -208 -220 -130 -220 -130 -8 -7 -8 -7 148 -89 148 -88 356
-213 356 -213 16 -6 16 -6 518 308 518 307 83 49 82 50 -2 686 -3 686 -110 66
-110 65 -402 238 -401 237 -6 0 -6 0 0 -683z"/>
<path fill="#c2c3c3" stroke="none" d="M3030 4453 l1 -538 327 -194 327 -194
395 -235 395 -235 322 -192 322 -193 303 181 303 180 190 113 190 113 22 16
22 15 -2 524 -2 524 -6 6 -6 7 -119 -69 -119 -69 -315 -185 -315 -185 -73 -42
-73 -43 -302 178 -302 178 -130 77 -130 76 -325 194 -325 193 -80 46 -80 47
-150 90 -150 90 -57 32 -58 32 0 -538z"/>
<path fill="#c2c3c3" stroke="none" d="M3970 2387 l0 -614 183 -108 182 -108
160 -95 160 -96 193 -113 194 -113 9 0 9 0 0 608 0 609 -277 165 -278 166
-263 156 -264 156 -4 0 -4 0 0 -613z"/>
<path fill="#c2c3c3" stroke="none" d="M6195 2960 l-60 -37 -220 -130 -220
-130 -257 -153 -258 -152 0 -614 0 -614 5 0 5 0 38 24 37 24 320 189 320 190
183 108 182 107 0 614 0 614 -7 -1 -8 -1 -60 -38z"/>
</g>
</svg>
