<?xml version="1.0" ?>
<svg xmlns="http://www.w3.org/2000/svg" version="1.0" width="1024.000000pt" height="1024.000000pt" viewBox="0 0 10240 10240" preserveAspectRatio="xMidYMid meet">
  <metadata>Edited for wider center spacing; dark patch color</metadata>
  <path d="M 5025.000 1149.000 L 4995.000 1167.000 L 4775.000 1297.000 L 4555.000 1427.000 L 4320.000 1565.000 L 4085.000 1703.000 L 4028.000 1738.000 L 3970.000 1773.000 L 3970.000 2386.000 L 3970.000 3000.000 L 3974.000 3000.000 L 3978.000 3000.000 L 4236.000 2848.000 L 4495.000 2697.000 L 4740.000 2552.000 L 4985.000 2408.000 L 5023.000 2384.000 L 5060.000 2360.000 L 5060.000 1745.000 L 5060.000 1130.000 L 5058.000 1130.000 L 5055.000 1130.000 L 5025.000 1149.000 Z" fill="#1f232b" stroke="none"/>
  <path d="M 5180.000 1747.000 L 5180.000 2365.000 L 5293.000 2432.000 L 5406.000 2499.000 L 5516.000 2563.000 L 5625.000 2626.000 L 5775.000 2714.000 L 5925.000 2802.000 L 6045.000 2872.000 L 6165.000 2943.000 L 6213.000 2971.000 L 6260.000 3000.000 L 6265.000 3000.000 L 6270.000 3000.000 L 6270.000 2386.000 L 6270.000 1771.000 L 6078.000 1657.000 L 5885.000 1543.000 L 5650.000 1405.000 L 5415.000 1267.000 L 5320.000 1210.000 L 5225.000 1153.000 L 5203.000 1141.000 L 5180.000 1129.000 L 5180.000 1747.000 Z" fill="#1f232b" stroke="none"/>
  <path d="M 7270.000 2448.000 L 7195.000 2493.000 L 7040.000 2585.000 L 6885.000 2677.000 L 6610.000 2839.000 L 6335.000 3002.000 L 6322.000 3015.000 L 6309.000 3027.000 L 6557.000 3175.000 L 6805.000 3323.000 L 6890.000 3373.000 L 6975.000 3423.000 L 7110.000 3503.000 L 7245.000 3583.000 L 7345.000 3643.000 L 7445.000 3702.000 L 7476.000 3684.000 L 7506.000 3665.000 L 7751.000 3519.000 L 7995.000 3373.000 L 8244.000 3225.000 L 8493.000 3078.000 L 8479.000 3069.000 L 8465.000 3060.000 L 8375.000 3006.000 L 8285.000 2952.000 L 8030.000 2803.000 L 7775.000 2653.000 L 7565.000 2530.000 L 7355.000 2407.000 L 7350.000 2405.000 L 7345.000 2403.000 L 7270.000 2448.000 Z" fill="#1f232b" stroke="none"/>
  <path d="M 2700.000 2515.000 L 2525.000 2619.000 L 2440.000 2669.000 L 2355.000 2718.000 L 2055.000 2895.000 L 1755.000 3072.000 L 1752.000 3075.000 L 1749.000 3078.000 L 1972.000 3210.000 L 2195.000 3343.000 L 2480.000 3513.000 L 2765.000 3683.000 L 2780.000 3692.000 L 2795.000 3702.000 L 3060.000 3544.000 L 3325.000 3387.000 L 3345.000 3376.000 L 3365.000 3365.000 L 3648.000 3196.000 L 3930.000 3028.000 L 3930.000 3021.000 L 3930.000 3015.000 L 3867.000 2979.000 L 3805.000 2943.000 L 3505.000 2765.000 L 3205.000 2588.000 L 3056.000 2499.000 L 2907.000 2410.000 L 2891.000 2411.000 L 2875.000 2411.000 L 2700.000 2515.000 Z" fill="#1f232b" stroke="none"/>
  <path d="M 3030.088 5000.487 L 3880.000 5503.201 L 3880.000 4403.428 L 5961.601 3183.490 L 5114.000 2680.000 L 3031.000 3915.000 L 3030.088 5000.487 Z" fill="#1f232b" stroke="none"/>
  <path d="M 1692.000 3842.000 L 1695.000 4494.000 L 1740.000 4520.000 L 1785.000 4547.000 L 1975.000 4660.000 L 2165.000 4774.000 L 2295.000 4850.000 L 2425.000 4927.000 L 2565.000 5010.000 L 2705.000 5092.000 L 2718.000 5097.000 L 2730.000 5102.000 L 2730.000 4454.000 L 2729.000 3805.000 L 2502.000 3671.000 L 2275.000 3537.000 L 2040.000 3397.000 L 1805.000 3257.000 L 1747.000 3224.000 L 1690.000 3191.000 L 1692.000 3842.000 Z" fill="#1f232b" stroke="none"/>
  <path d="M 8215.000 3388.000 L 7885.000 3586.000 L 7698.000 3695.000 L 7510.000 3805.000 L 7510.000 4454.000 L 7510.000 5102.000 L 7525.000 5096.000 L 7541.000 5090.000 L 7673.000 5011.000 L 7805.000 4933.000 L 8005.000 4815.000 L 8205.000 4697.000 L 8373.000 4597.000 L 8542.000 4497.000 L 8546.000 4486.000 L 8550.000 4475.000 L 8548.000 3833.000 L 8545.000 3191.000 L 8215.000 3388.000 Z" fill="#1f232b" stroke="none"/>
  <path d="M 6253.630 3352.160 L 5424.347 3842.314 L 6354.790 4396.737 L 6364.782 6826.707 L 7210.000 6325.000 L 7210.000 3915.000 L 6253.630 3352.160 Z" fill="#1f232b" stroke="none"/>
  <path d="M 5130.955 4024.765 L 4337.513 4497.071 L 5126.424 4955.569 L 5909.258 4488.974 L 5130.955 4024.765 Z" fill="#1f232b" stroke="none"/>
  <path d="M 4191.299 4769.274 L 4187.230 5681.739 L 4966.170 6141.322 L 4955.588 5220.715 L 4191.299 4769.274 Z" fill="#1f232b" stroke="none"/>
  <path d="M 6059.140 4766.717 L 5281.499 5220.951 L 5272.548 6141.307 L 6059.954 5675.689 L 6059.140 4766.717 Z" fill="#1f232b" stroke="none"/>
  <path d="M 2638.000 5188.000 L 2561.000 5235.000 L 2475.000 5285.000 L 2388.000 5335.000 L 2042.000 5540.000 L 1695.000 5746.000 L 1692.000 6432.000 L 1690.000 7118.000 L 1882.000 7232.000 L 2075.000 7346.000 L 2300.000 7480.000 L 2525.000 7613.000 L 2709.000 7722.000 L 2892.000 7831.000 L 2907.000 7826.000 L 2922.000 7820.000 L 3394.000 7539.000 L 3865.000 7257.000 L 3899.000 7237.000 L 3932.000 7217.000 L 3911.000 7201.000 L 3890.000 7185.000 L 3703.000 7076.000 L 3515.000 6966.000 L 3285.000 6829.000 L 3055.000 6693.000 L 2895.000 6598.000 L 2735.000 6504.000 L 2732.000 5822.000 L 2730.000 5140.000 L 2722.000 5141.000 L 2715.000 5142.000 L 2638.000 5188.000 Z" fill="#1f232b" stroke="none"/>
  <path d="M 7510.000 5823.000 L 7510.000 6507.000 L 7487.000 6517.000 L 7463.000 6528.000 L 7114.000 6735.000 L 6765.000 6943.000 L 6545.000 7073.000 L 6325.000 7203.000 L 6317.000 7210.000 L 6309.000 7217.000 L 6457.000 7306.000 L 6605.000 7394.000 L 6961.000 7607.000 L 7317.000 7820.000 L 7333.000 7826.000 L 7349.000 7832.000 L 7867.000 7524.000 L 8385.000 7217.000 L 8468.000 7168.000 L 8550.000 7118.000 L 8548.000 6432.000 L 8545.000 5746.000 L 8435.000 5680.000 L 8325.000 5615.000 L 7923.000 5377.000 L 7522.000 5140.000 L 7516.000 5140.000 L 7510.000 5140.000 L 7510.000 5823.000 Z" fill="#1f232b" stroke="none"/>
  <path d="M 6059.797 7003.522 L 6045.335 6044.528 L 5118.790 6586.384 L 3030.097 5353.565 L 3031.000 6325.000 L 5119.000 7568.000 L 6059.797 7003.522 Z" fill="#1f232b" stroke="none"/>
  <path d="M 3970.000 7853.000 L 3970.000 8467.000 L 4153.000 8575.000 L 4335.000 8683.000 L 4495.000 8778.000 L 4655.000 8874.000 L 4848.000 8987.000 L 5042.000 9100.000 L 5051.000 9100.000 L 5060.000 9100.000 L 5060.000 8492.000 L 5060.000 7883.000 L 4783.000 7718.000 L 4505.000 7552.000 L 4242.000 7396.000 L 3978.000 7240.000 L 3974.000 7240.000 L 3970.000 7240.000 L 3970.000 7853.000 Z" fill="#1f232b" stroke="none"/>
  <path d="M 6195.000 7280.000 L 6135.000 7317.000 L 5915.000 7447.000 L 5695.000 7577.000 L 5438.000 7730.000 L 5180.000 7882.000 L 5180.000 8496.000 L 5180.000 9110.000 L 5185.000 9110.000 L 5190.000 9110.000 L 5228.000 9086.000 L 5265.000 9062.000 L 5585.000 8873.000 L 5905.000 8683.000 L 6088.000 8575.000 L 6270.000 8468.000 L 6270.000 7854.000 L 6270.000 7240.000 L 6263.000 7241.000 L 6255.000 7242.000 L 6195.000 7280.000 Z" fill="#1f232b" stroke="none"/>
  <path d="M 5055.000 1130.000 L 5180.000 1129.000 L 5180.000 2365.000 L 5060.000 2360.000 L 5060.000 1130.000 L 5055.000 1130.000 Z" fill="#1f232b" stroke="none"/>
  <path d="M 1749.000 3078.000 L 1972.000 3210.000 L 2195.000 3343.000 L 2480.000 3513.000 L 2765.000 3683.000 L 2780.000 3692.000 L 2795.000 3702.000 L 2729.000 3805.000 L 2502.000 3671.000 L 2275.000 3537.000 L 2040.000 3397.000 L 1805.000 3257.000 L 1747.000 3224.000 L 1690.000 3191.000 L 1749.000 3078.000 Z" fill="#1f232b" stroke="none"/>
  <path d="M 8493.000 3078.000 L 8244.000 3225.000 L 7995.000 3373.000 L 7751.000 3519.000 L 7506.000 3665.000 L 7476.000 3684.000 L 7445.000 3702.000 L 7510.000 3805.000 L 7698.000 3695.000 L 7885.000 3586.000 L 8215.000 3388.000 L 8545.000 3191.000 L 8493.000 3078.000 Z" fill="#1f232b" stroke="none"/>
  <path d="M 5060.000 7883.000 L 5180.000 7882.000 L 5180.000 9110.000 L 5060.000 9100.000 L 5060.000 7883.000 Z" fill="#1f232b" stroke="none"/>
</svg>
